HIERARCHY
ROOT joint_Root
{
	OFFSET 0.0 0.0 0.0
	CHANNELS 6 Xposition Yposition Zposition Zrotation Xrotation Yrotation 
	JOINT Hips
	{
		OFFSET 4.5925 91.4895 -427.239
		CHANNELS 6 Xposition Yposition Zposition Zrotation Xrotation Yrotation 
		JOINT Spine
		{
			OFFSET 15.7357 0.0 0.0
			CHANNELS 6 Xposition Yposition Zposition Zrotation Xrotation Yrotation 
			JOINT Chest
			{
				OFFSET 8.98455 -0.406207 0.0
				CHANNELS 6 Xposition Yposition Zposition Zrotation Xrotation Yrotation 
				JOINT Neck
				{
					OFFSET 16.3773 0.0 0.0
					CHANNELS 6 Xposition Yposition Zposition Zrotation Xrotation Yrotation 
					JOINT Head
					{
						OFFSET 6.45672 0.0 0.0
						CHANNELS 6 Xposition Yposition Zposition Zrotation Xrotation Yrotation 
						End Site
						{
							OFFSET 0.0 0.0 0.0
						}
					}
				}
				JOINT Shoulder_L
				{
					OFFSET 12.9942 -0.242716 4.98039
					CHANNELS 6 Xposition Yposition Zposition Zrotation Xrotation Yrotation 
					JOINT UpperArm_L
					{
						OFFSET 5.34809 0.0 0.0
						CHANNELS 6 Xposition Yposition Zposition Zrotation Xrotation Yrotation 
						JOINT LowerArm_L
						{
							OFFSET 24.3286 1.87007e-05 0.0
							CHANNELS 6 Xposition Yposition Zposition Zrotation Xrotation Yrotation 
							JOINT Hand_L
							{
								OFFSET 22.2916 0.0 0.0
								CHANNELS 6 Xposition Yposition Zposition Zrotation Xrotation Yrotation 
								End Site
								{
									OFFSET 0.0 0.0 0.0
								}
							}
						}
					}
				}
				JOINT Shoulder_R
				{
					OFFSET 12.9945 -0.242716 -4.98039
					CHANNELS 6 Xposition Yposition Zposition Zrotation Xrotation Yrotation 
					JOINT UpperArm_R
					{
						OFFSET -5.34813 0.0 0.0
						CHANNELS 6 Xposition Yposition Zposition Zrotation Xrotation Yrotation 
						JOINT LowerArm_R
						{
							OFFSET -24.3289 0.000322201 0.0
							CHANNELS 6 Xposition Yposition Zposition Zrotation Xrotation Yrotation 
							JOINT Hand_R
							{
								OFFSET -22.2915 -0.000108084 0.0
								CHANNELS 6 Xposition Yposition Zposition Zrotation Xrotation Yrotation 
								End Site
								{
									OFFSET 0.0 0.0 0.0
								}
							}
						}
					}
				}
			}
		}
		JOINT UpperLeg_L
		{
			OFFSET -2.19248 -6.46944 0.0
			CHANNELS 6 Xposition Yposition Zposition Zrotation Xrotation Yrotation 
			JOINT LowerLeg_L
			{
				OFFSET 39.0811 0.0 -1.23785e-05
				CHANNELS 6 Xposition Yposition Zposition Zrotation Xrotation Yrotation 
				JOINT Foot_L
				{
					OFFSET 40.9854 0.0 -1.26872e-05
					CHANNELS 6 Xposition Yposition Zposition Zrotation Xrotation Yrotation 
					JOINT Toes_L
					{
						OFFSET 11.7543 0.0 0.0
						CHANNELS 6 Xposition Yposition Zposition Zrotation Xrotation Yrotation 
						End Site
						{
							OFFSET 0.0 0.0 0.0
						}
					}
				}
			}
		}
		JOINT UpperLeg_R
		{
			OFFSET -2.19251 6.46944 0.0
			CHANNELS 6 Xposition Yposition Zposition Zrotation Xrotation Yrotation 
			JOINT LowerLeg_R
			{
				OFFSET -39.0811 -0.00228153 -0.0401928
				CHANNELS 6 Xposition Yposition Zposition Zrotation Xrotation Yrotation 
				JOINT Foot_R
				{
					OFFSET -40.9854 0.0 0.0
					CHANNELS 6 Xposition Yposition Zposition Zrotation Xrotation Yrotation 
					JOINT Toes_R
					{
						OFFSET -11.7543 0.0 0.0
						CHANNELS 6 Xposition Yposition Zposition Zrotation Xrotation Yrotation 
						End Site
						{
							OFFSET 0.0 0.0 0.0
						}
					}
				}
			}
		}
	}
}
MOTION
Frames:	7
Frame Time:	0.0333333
0.000000 0.000000 0.000000 0.000000 0.000000 -0.000000 -1.983150 89.779900 -5.040840 89.697000 -1.542040 10.464600 15.735700 0.000005 -0.000001 89.973300 75.317100 -89.217200 8.984550 -0.406207 -0.000000 21.599700 0.077373 1.503620 16.377300 -0.000001 -0.000001 7.048890 -3.648350 1.036210 6.456720 -0.000001 -0.000000 -9.599360 -3.724410 2.332200 12.994200 -0.242716 4.980390 -90.261000 0.743458 -70.654400 5.348090 -0.000007 -0.000001 -77.806300 -17.407500 -78.959500 24.328600 0.000019 0.000005 34.447200 -18.930400 -115.313000 22.291600 -0.000001 0.000005 18.163100 4.992680 7.474640 12.994500 -0.242716 -4.980390 89.045400 9.469520 -84.217100 -5.348130 -0.000001 -0.000004 -51.766100 32.338300 -29.617900 -24.328900 0.000322 -0.000009 1.823370 4.405370 -22.523100 -22.291500 -0.000108 -0.000004 16.880600 5.405370 -3.112700 -2.192480 -6.469440 -0.000000 -174.232000 -11.320300 -6.454690 39.081100 -0.000007 -0.000012 -0.216821 0.290147 36.770400 40.985400 -0.000006 -0.000013 -0.703326 4.894400 -69.504000 11.754300 -0.000000 0.000003 -0.000125 -0.001241 -16.624900 -2.192510 6.469440 -0.000001 176.639000 18.703500 174.446000 -39.081100 -0.002282 -0.040193 -0.080930 0.111628 37.032200 -40.985400 0.000008 0.000006 6.745970 9.687150 -71.698700 -11.754300 -0.000006 -0.000006 -0.001848 -0.026793 -17.662600
0.000000 0.000000 0.000000 0.000000 0.000000 -0.000000 -1.991060 89.788300 -5.011310 89.698100 -1.538650 10.438700 15.735700 0.000005 -0.000001 89.954700 75.313200 -89.239000 8.984550 -0.406207 -0.000000 21.607500 0.063306 1.425190 16.377300 -0.000001 -0.000001 7.038340 -3.639370 0.997349 6.456720 -0.000001 -0.000000 -9.616410 -3.701880 2.259930 12.994200 -0.242716 4.980390 -90.254800 0.726801 -70.683400 5.348090 -0.000007 -0.000001 -77.754400 -17.154900 -78.967200 24.328600 0.000019 0.000005 34.379400 -18.914300 -115.351000 22.291600 -0.000001 0.000005 18.204200 4.993730 7.452420 12.994500 -0.242716 -4.980390 89.047900 9.460990 -84.227000 -5.348130 -0.000001 -0.000004 -51.728600 32.469400 -29.697700 -24.328900 0.000322 -0.000009 1.814570 4.399700 -22.451200 -22.291500 -0.000108 -0.000004 16.884300 5.404870 -3.096290 -2.192480 -6.469440 -0.000000 -174.236000 -11.370100 -6.446890 39.081100 -0.000007 -0.000012 -0.210448 0.281994 36.733900 40.985400 -0.000006 -0.000013 -0.694208 4.908860 -69.498900 11.754300 -0.000000 0.000003 -0.000115 -0.001160 -16.621900 -2.192510 6.469440 -0.000001 176.643000 18.738500 174.461000 -39.081100 -0.002282 -0.040193 -0.078708 0.108825 36.996200 -40.985400 0.000008 0.000006 6.792240 9.677370 -71.712200 -11.754300 -0.000006 -0.000006 -0.001965 -0.028275 -17.722800
0.000000 0.000000 0.000000 0.000000 0.000000 -0.000000 -1.995940 89.793100 -4.991850 89.672800 -1.530810 10.397800 15.735700 0.000005 -0.000001 89.904800 75.313100 -89.217300 8.984550 -0.406207 -0.000000 21.607800 0.034978 1.373950 16.377300 -0.000001 -0.000001 7.000410 -3.644050 0.902924 6.456720 -0.000001 -0.000000 -9.615020 -3.701070 2.229030 12.994200 -0.242716 4.980390 -90.244100 0.696501 -70.686900 5.348090 -0.000007 -0.000001 -77.780100 -16.995900 -78.969800 24.328600 0.000019 0.000005 34.471700 -18.967600 -115.334000 22.291600 -0.000001 0.000005 18.186300 4.992680 7.474640 12.994500 -0.242716 -4.980390 89.051500 9.457690 -84.246900 -5.348130 -0.000001 -0.000004 -51.771000 32.501900 -29.721000 -24.328900 0.000322 -0.000009 1.834430 4.448540 -22.448500 -22.291500 -0.000108 -0.000004 16.940400 5.405660 -3.122180 -2.192480 -6.469440 -0.000000 -174.208000 -11.365000 -6.468230 39.081100 -0.000007 -0.000012 -0.210947 0.282797 36.720900 40.985400 -0.000006 -0.000013 -0.694758 4.941710 -69.505100 11.754300 -0.000000 0.000003 -0.000118 -0.001186 -16.622900 -2.192510 6.469440 -0.000001 176.689000 18.748100 174.452000 -39.081100 -0.002282 -0.040193 -0.076807 0.106416 36.966500 -40.985400 0.000008 0.000006 6.856070 9.644350 -71.727900 -11.754300 -0.000006 -0.000006 -0.002060 -0.029466 -17.771300
0.000000 0.000000 0.000000 0.000000 0.000000 -0.000000 -1.999740 89.805800 -4.977750 89.667500 -1.516350 10.342700 15.735700 0.000005 -0.000001 89.880500 75.323800 -89.223800 8.984550 -0.406207 -0.000000 21.586600 0.019088 1.315150 16.377300 -0.000001 -0.000001 6.955160 -3.608280 0.865706 6.456720 -0.000001 -0.000000 -9.548060 -3.652560 2.180970 12.994200 -0.242716 4.980390 -90.238300 0.680145 -70.689800 5.348090 -0.000007 -0.000001 -77.781800 -16.868100 -78.978500 24.328600 0.000019 0.000005 34.407800 -18.896500 -115.307000 22.291600 -0.000001 0.000005 18.189600 4.993270 7.462150 12.994500 -0.242716 -4.980390 89.049600 9.458070 -84.235300 -5.348130 -0.000001 -0.000004 -51.771500 32.556700 -29.758600 -24.328900 0.000322 -0.000009 1.800960 4.361870 -22.473200 -22.291500 -0.000108 -0.000004 16.897700 5.406580 -3.152650 -2.192480 -6.469440 -0.000000 -174.202000 -11.327700 -6.480990 39.081100 -0.000007 -0.000012 -0.220453 0.296203 36.659400 40.985400 -0.000006 -0.000013 -0.716347 4.928680 -69.486600 11.754300 -0.000000 0.000003 -0.000121 -0.001212 -16.623900 -2.192510 6.469440 -0.000001 176.692000 18.785600 174.449000 -39.081100 -0.002282 -0.040193 -0.078036 0.108353 36.889400 -40.985400 0.000008 0.000006 6.728240 9.707330 -71.678600 -11.754300 -0.000006 -0.000006 -0.001954 -0.028136 -17.717200
0.000000 0.000000 0.000000 0.000000 0.000000 -0.000000 -2.001630 89.817300 -4.951820 89.610500 -1.521990 10.289500 15.735700 0.000005 -0.000001 89.894400 75.334600 -89.249000 8.984550 -0.406207 -0.000000 21.564900 0.024562 1.291330 16.377300 -0.000001 -0.000001 6.921600 -3.592930 0.792957 6.456720 -0.000001 -0.000000 -9.520090 -3.612730 2.245650 12.994200 -0.242716 4.980390 -90.231900 0.661394 -70.680800 5.348090 -0.000007 -0.000001 -77.768800 -16.818800 -78.936800 24.328600 0.000019 0.000005 34.391100 -18.847100 -115.265000 22.291600 -0.000001 0.000005 18.240200 4.993170 7.464090 12.994500 -0.242716 -4.980390 89.039800 9.492110 -84.196700 -5.348130 -0.000001 -0.000004 -51.760800 32.599300 -29.790500 -24.328900 0.000322 -0.000009 1.783330 4.309700 -22.517200 -22.291500 -0.000108 -0.000004 16.931300 5.407460 -3.181440 -2.192480 -6.469440 -0.000000 -174.159000 -11.317800 -6.503690 39.081100 -0.000007 -0.000012 -0.213638 0.287289 36.636200 40.985400 -0.000006 -0.000013 -0.721821 4.914540 -69.494000 11.754300 -0.000000 0.000003 -0.000124 -0.001235 -16.624700 -2.192510 6.469440 -0.000001 176.761000 18.850600 174.449000 -39.081100 -0.002282 -0.040193 -0.076724 0.106878 36.819000 -40.985400 0.000008 0.000006 6.844640 9.721000 -71.684900 -11.754300 -0.000006 -0.000006 -0.002003 -0.028751 -17.742200
0.000000 0.000000 0.000000 0.000000 0.000000 -0.000000 -2.001820 89.830200 -4.912380 89.577700 -1.544240 10.248500 15.735700 0.000005 -0.000001 89.945000 75.352300 -89.317600 8.984550 -0.406207 -0.000000 21.529500 0.047510 1.250850 16.377300 -0.000001 -0.000001 6.837290 -3.531260 0.762178 6.456720 -0.000001 -0.000000 -9.440830 -3.563150 2.298710 12.994200 -0.242716 4.980390 -90.242200 0.690481 -70.673300 5.348090 -0.000007 -0.000001 -77.664800 -16.781200 -78.880300 24.328600 0.000019 0.000005 34.451900 -18.757000 -115.113000 22.291600 -0.000001 0.000005 18.231200 4.992340 7.482010 12.994500 -0.242716 -4.980390 89.035700 9.510360 -84.183300 -5.348130 -0.000001 -0.000004 -51.793100 32.612400 -29.755500 -24.328900 0.000322 -0.000009 1.783640 4.298060 -22.575500 -22.291500 -0.000108 -0.000004 16.912200 5.406070 -3.135920 -2.192480 -6.469440 -0.000000 -174.135000 -11.325600 -6.487760 39.081100 -0.000007 -0.000012 -0.212662 0.286433 36.592400 40.985400 -0.000006 -0.000013 -0.730024 4.883100 -69.505300 11.754300 -0.000000 0.000003 -0.000111 -0.001122 -16.620500 -2.192510 6.469440 -0.000001 176.792000 18.840300 174.477000 -39.081100 -0.002282 -0.040193 -0.078761 0.109919 36.739200 -40.985400 0.000008 0.000006 6.836750 9.753070 -71.673300 -11.754300 -0.000006 -0.000006 -0.001944 -0.028017 -17.712300
0.000000 0.000000 0.000000 0.000000 0.000000 -0.000000 -1.987220 89.841700 -4.881050 89.573000 -1.561260 10.170500 15.735700 0.000005 -0.000001 89.957900 75.382700 -89.350500 8.984550 -0.406207 -0.000000 21.468500 0.051240 1.209880 16.377300 -0.000001 -0.000001 6.684870 -3.496710 0.712495 6.456720 -0.000001 -0.000000 -9.333890 -3.514470 2.354170 12.994200 -0.242716 4.980390 -90.241200 0.687813 -70.675900 5.348090 -0.000007 -0.000001 -77.603300 -16.773000 -78.722900 24.328600 0.000019 0.000005 34.392400 -18.638400 -115.027000 22.291600 -0.000001 0.000005 18.233700 4.992250 7.483810 12.994500 -0.242716 -4.980390 89.034600 9.518030 -84.181500 -5.348130 -0.000001 -0.000004 -51.883300 32.568600 -29.722500 -24.328900 0.000322 -0.000009 1.819460 4.387190 -22.563200 -22.291500 -0.000108 -0.000004 16.849800 5.407270 -3.175000 -2.192480 -6.469440 -0.000000 -174.149000 -11.298600 -6.524780 39.081100 -0.000007 -0.000012 -0.217673 0.293732 36.541000 40.985400 -0.000006 -0.000013 -0.743002 4.851430 -69.497200 11.754300 -0.000000 0.000003 -0.000118 -0.001182 -16.622700 -2.192510 6.469440 -0.000001 176.799000 18.874300 174.449000 -39.081100 -0.002282 -0.040193 -0.079705 0.111428 36.679000 -40.985400 0.000008 0.000006 6.805240 9.798710 -71.659100 -11.754300 -0.000006 -0.000006 -0.001969 -0.028323 -17.724800
